<?xml version="1.0" encoding="UTF-8"?>
<svg id="Layer_2" data-name="Layer 2" xmlns="http://www.w3.org/2000/svg" viewBox="0 0 290.4 74.1">
  <defs>
    <style>
      .cls-1, .cls-2 {
        fill: #002c3b;
      }

      .cls-3 {
        fill: #85c441;
      }

      .cls-4 {
        fill: #399fd9;
      }

      .cls-2 {
        fill-rule: evenodd;
      }
    </style>
  </defs>
  <g id="Foreground">
    <g>
      <g>
        <path class="cls-2" d="m152.81,41.67c0-1.55.26-2.92.78-4.1.57-1.22,1.32-2.28,2.26-3.18.94-.89,2.02-1.6,3.25-2.12,1.27-.52,2.64-.89,4.1-1.13l8.55-1.27c.99-.14,1.67-.42,2.05-.85.38-.47.56-1.01.56-1.62,0-1.22-.49-2.28-1.48-3.18-.94-.89-2.4-1.34-4.38-1.34s-3.67.56-4.8,1.7c-1.08,1.13-1.7,2.45-1.84,3.95l-8.33-1.77c.14-1.37.56-2.73,1.27-4.1.71-1.37,1.67-2.59,2.9-3.67,1.22-1.08,2.73-1.95,4.52-2.61,1.79-.71,3.86-1.06,6.21-1.06,2.73,0,5.06.38,6.99,1.13,1.93.71,3.48,1.67,4.66,2.9,1.22,1.18,2.1,2.57,2.61,4.17.56,1.6.85,3.27.85,5.01v17.09c0,.94.05,1.95.14,3.04.09,1.04.19,1.86.28,2.47h-8.62c-.09-.47-.19-1.11-.28-1.91-.05-.85-.07-1.6-.07-2.26-.89,1.37-2.19,2.57-3.88,3.6-1.65,1.03-3.77,1.55-6.36,1.55-1.84,0-3.51-.31-5.01-.92-1.46-.56-2.71-1.32-3.74-2.26-1.04-.99-1.84-2.1-2.4-3.32-.52-1.27-.78-2.59-.78-3.95Zm13.91,3.46c.99,0,1.93-.12,2.83-.35.94-.28,1.76-.73,2.47-1.34.71-.66,1.27-1.48,1.7-2.47.42-1.04.63-2.33.63-3.88v-1.55l-7.84,1.2c-1.22.19-2.26.64-3.11,1.34-.8.66-1.2,1.67-1.2,3.04,0,1.04.38,1.98,1.13,2.83.75.8,1.88,1.2,3.39,1.2Zm21.97,6V0h9.39v51.13h-9.39Zm13-9.46c0-1.55.26-2.92.78-4.1.57-1.22,1.32-2.28,2.26-3.18.94-.89,2.02-1.6,3.25-2.12,1.27-.52,2.64-.89,4.1-1.13l8.54-1.27c.99-.14,1.67-.42,2.05-.85.38-.47.56-1.01.56-1.62,0-1.22-.49-2.28-1.48-3.18-.94-.89-2.4-1.34-4.38-1.34s-3.67.56-4.8,1.7c-1.08,1.13-1.7,2.45-1.84,3.95l-8.33-1.77c.14-1.37.56-2.73,1.27-4.1.71-1.37,1.67-2.59,2.9-3.67,1.22-1.08,2.73-1.95,4.52-2.61,1.79-.71,3.86-1.06,6.21-1.06,2.73,0,5.06.38,6.99,1.13,1.93.71,3.48,1.67,4.66,2.9,1.22,1.18,2.1,2.57,2.61,4.17.57,1.6.85,3.27.85,5.01v17.09c0,.94.05,1.95.14,3.04.09,1.04.19,1.86.28,2.47h-8.62c-.09-.47-.19-1.11-.28-1.91-.05-.85-.07-1.6-.07-2.26-.89,1.37-2.19,2.57-3.88,3.6-1.65,1.03-3.77,1.55-6.36,1.55-1.84,0-3.51-.31-5.01-.92-1.46-.56-2.71-1.32-3.74-2.26-1.04-.99-1.84-2.1-2.4-3.32-.52-1.27-.78-2.59-.78-3.95Zm13.91,3.46c.99,0,1.93-.12,2.83-.35.94-.28,1.77-.73,2.47-1.34.71-.66,1.27-1.48,1.69-2.47.42-1.04.64-2.33.64-3.88v-1.55l-7.84,1.2c-1.22.19-2.26.64-3.11,1.34-.8.66-1.2,1.67-1.2,3.04,0,1.04.38,1.98,1.13,2.83.75.8,1.88,1.2,3.39,1.2Zm51.56-28.74l7.49,22.39,6.43-22.39h9.32l-10.87,34.74h-9.39l-8.12-23.73-7.98,23.73h-9.53l-11.09-34.74h9.89l6.43,22.32,7.56-22.32h9.89Zm-211.55.1c2.05-.71,4.39-1.12,6.87-1.12s4.82.4,6.87,1.12c.68.18,1.31.41,1.9.69,1.6.71,2.92,1.67,3.96,2.9,1.04,1.22,1.79,2.68,2.26,4.38.52,1.69.78,3.48.78,5.37v21.4h-9.39v-19.77c0-1.98-.52-3.63-1.55-4.94-.97-1.3-2.56-1.96-4.76-1.98-2.31.02-3.9.68-4.87,1.98-1.04,1.32-1.55,2.97-1.55,4.94v19.77h-9.39v-21.4c0-1.88.26-3.67.78-5.37.47-1.7,1.22-3.16,2.26-4.38,1.04-1.22,2.35-2.19,3.96-2.9.59-.29,1.22-.52,1.9-.69Zm36.41,34.53c2.05.71,4.39,1.12,6.87,1.12s4.82-.4,6.87-1.12c.68-.18,1.31-.41,1.9-.69,1.6-.71,2.92-1.67,3.95-2.9,1.04-1.22,1.79-2.68,2.26-4.38.52-1.69.78-3.48.78-5.37v-21.23h-9.39v19.61c0,1.98-.52,3.63-1.55,4.94-.97,1.3-2.56,1.96-4.76,1.98-2.31-.02-3.9-.68-4.87-1.98-1.04-1.32-1.55-2.97-1.55-4.94v-19.61h-9.39v21.23c0,1.88.26,3.67.78,5.37.47,1.7,1.22,3.16,2.26,4.38,1.04,1.22,2.35,2.19,3.96,2.9.59.29,1.22.52,1.9.69Zm47.99.11h-9.39l-14.2-34.74h10.31l8.62,23.31,8.26-23.31h9.89l-13.49,34.74Z"/>
        <path class="cls-4" d="m19.75,7.97c5.88,0,11.03,2.04,15.32,5.32.51.39,1.01.8,1.49,1.22.03.02.1.18.1.29l.06,22.76c0,1.97-.51,3.63-1.57,4.97-1.01,1.35-2.66,2.01-4.95,2.03-2.19-.02-3.83-.68-4.85-2.03-1.05-1.34-1.48-3.03-1.5-5.06l-.06-8.58c0-1.8-.45-3.54-.94-5.15-.19-.7-.83-1.84-1.62-3.21-1.18-1.51-2.81-2.65-4.7-3.49-.56-.27-1.17-.49-1.81-.66-1.96-.68-4.2-1.03-6.58-1.03s-4.5.37-6.42,1.01c-.47.16-3.63,1.46,0-2.06,4.78-4.01,11.42-6.34,18.02-6.34Z"/>
        <path class="cls-3" d="m18.67,61.02c-5.88,0-11.03-2.03-15.32-5.32-.51-.39-1.01-.8-1.49-1.22-.03-.02-.1-.18-.1-.29l-.06-22.76c0-1.97.52-3.63,1.57-4.97,1.01-1.35,2.66-2.01,4.95-2.03,2.19.02,3.83.68,4.85,2.03,1.05,1.34,1.48,3.03,1.5,5.06l.06,8.57c0,1.8.45,3.54.94,5.15.19.7.83,1.84,1.61,3.21,1.18,1.51,2.81,2.65,4.7,3.49.56.27,1.17.49,1.81.66,1.96.68,4.2,1.03,6.58,1.03s4.5-.37,6.42-1.01c.47-.16,3.63-1.46,0,2.06-4.79,4.01-11.42,6.34-18.02,6.34Z"/>
      </g>
      <g>
        <path class="cls-2" d="m164.31,66.96c-.25-.04-.48-.06-.7-.06-.84,0-1.45.23-1.84.68-.38.46-.57,1.11-.57,1.95v4.28h-2.14v-8.98h2.08v1.44c.21-.49.55-.87,1.01-1.14s1-.41,1.59-.41c.13,0,.25,0,.35.02.1.01.17.02.22.04v2.18Z"/>
        <path class="cls-2" d="m171.96,68.34c-.01-.26-.07-.5-.17-.74-.09-.25-.22-.46-.41-.65-.18-.18-.41-.33-.68-.44-.27-.11-.59-.17-.96-.17-.33,0-.63.06-.9.18-.26.11-.48.26-.66.46-.18.18-.33.4-.44.65-.11.23-.17.47-.18.7h4.41Zm2.05,2.91c-.12.39-.3.76-.53,1.11-.23.34-.52.65-.87.9-.34.26-.74.46-1.18.61-.44.15-.93.22-1.47.22-.62,0-1.2-.1-1.75-.31-.55-.22-1.04-.53-1.46-.94-.42-.42-.76-.92-1.01-1.51-.25-.6-.37-1.28-.37-2.05,0-.71.12-1.36.35-1.94.25-.58.57-1.07.98-1.48.41-.42.87-.74,1.4-.96.53-.23,1.08-.35,1.64-.35.69,0,1.3.11,1.84.33.55.22,1.01.53,1.38.94.38.41.67.9.87,1.48.2.57.29,1.2.29,1.92,0,.17,0,.33-.02.46-.01.12-.03.2-.04.22h-6.56c.01.34.09.66.22.94.14.28.31.53.53.74.22.21.47.37.76.5.29.11.61.17.94.17.65,0,1.15-.15,1.49-.44.36-.31.61-.68.76-1.12l1.81.57Z"/>
        <path class="cls-2" d="m177.23,70.87c.04.41.2.76.5,1.07.31.31.75.46,1.33.46.44,0,.77-.1,1-.29.23-.21.35-.45.35-.74,0-.25-.09-.45-.26-.63-.17-.17-.44-.3-.79-.37l-1.33-.29c-.8-.17-1.4-.49-1.81-.96-.41-.48-.61-1.03-.61-1.66,0-.39.09-.76.26-1.11.17-.36.41-.66.7-.92.29-.27.64-.48,1.03-.63.41-.16.84-.24,1.31-.24.63,0,1.15.09,1.57.28.43.17.78.39,1.05.65.27.26.47.53.59.83.13.28.22.54.26.76l-1.81.52c-.02-.12-.07-.26-.13-.42-.06-.16-.16-.31-.29-.44-.12-.14-.29-.25-.5-.33-.2-.1-.44-.15-.74-.15-.38,0-.69.1-.94.31-.23.2-.35.44-.35.72,0,.25.08.45.24.61.16.16.38.27.66.33l1.37.28c.85.18,1.49.52,1.92,1.01.44.48.66,1.05.66,1.71,0,.34-.07.69-.22,1.03-.13.33-.34.64-.63.92-.27.27-.62.49-1.05.66-.43.17-.93.26-1.49.26-.65,0-1.2-.09-1.66-.28-.45-.18-.83-.41-1.12-.68-.29-.28-.52-.58-.66-.89-.15-.32-.23-.61-.26-.87l1.86-.52Z"/>
        <path class="cls-2" d="m188.53,72.18c.33,0,.64-.06.94-.18.31-.12.58-.3.81-.53.23-.25.42-.55.55-.9.13-.36.2-.77.2-1.24s-.07-.87-.2-1.22c-.14-.36-.32-.65-.55-.88-.23-.25-.5-.42-.81-.53-.3-.12-.61-.18-.94-.18s-.65.06-.96.18c-.29.11-.56.29-.79.53-.22.23-.41.53-.55.88-.13.34-.2.75-.2,1.22s.07.88.2,1.24c.15.36.33.66.55.9.23.23.5.41.79.53.31.12.63.18.96.18Zm0-7.61c.68,0,1.3.12,1.86.37.57.23,1.06.57,1.47,1,.42.42.74.92.98,1.49.23.58.35,1.21.35,1.9s-.12,1.33-.35,1.92c-.23.58-.56,1.08-.98,1.51-.42.42-.91.75-1.47,1-.57.23-1.19.35-1.86.35s-1.29-.12-1.86-.35c-.57-.25-1.06-.58-1.48-1-.41-.43-.72-.93-.96-1.51-.23-.59-.35-1.23-.35-1.92s.12-1.32.35-1.9c.23-.58.55-1.08.96-1.49.42-.43.91-.76,1.48-1,.58-.25,1.2-.37,1.86-.37Z"/>
        <rect class="cls-1" x="195.26" y="60.47" width="2.14" height="13.35"/>
        <polygon class="cls-2" points="204.76 73.82 202.62 73.82 198.97 64.84 201.33 64.84 203.71 71.26 206.03 64.84 208.28 64.84 204.76 73.82"/>
        <path class="cls-2" d="m215.75,68.34c-.01-.26-.07-.5-.17-.74-.09-.25-.22-.46-.41-.65-.18-.18-.41-.33-.68-.44-.27-.11-.59-.17-.96-.17-.33,0-.63.06-.9.18-.26.11-.48.26-.66.46-.18.18-.33.4-.44.65-.11.23-.17.47-.18.7h4.41Zm2.05,2.91c-.12.39-.3.76-.54,1.11-.23.34-.52.65-.87.9-.34.26-.74.46-1.18.61-.44.15-.93.22-1.47.22-.62,0-1.2-.1-1.75-.31-.55-.22-1.04-.53-1.46-.94-.42-.42-.76-.92-1.01-1.51-.25-.6-.37-1.28-.37-2.05,0-.71.12-1.36.35-1.94.25-.58.57-1.07.98-1.48.41-.42.87-.74,1.4-.96.53-.23,1.08-.35,1.64-.35.69,0,1.3.11,1.84.33.55.22,1.01.53,1.38.94.38.41.67.9.87,1.48.2.57.29,1.2.29,1.92,0,.17,0,.33-.02.46-.01.12-.03.2-.04.22h-6.56c.01.34.09.66.22.94.13.28.31.53.53.74.22.21.47.37.76.5.29.11.61.17.94.17.65,0,1.15-.15,1.49-.44.36-.31.61-.68.76-1.12l1.81.57Z"/>
        <path class="cls-2" d="m227.23,64.84h1.86v1.9h-1.86v4.17c0,.39.09.68.28.87.18.17.47.26.87.26.15,0,.29,0,.44-.02.15-.02.25-.04.29-.06v1.77c-.06.02-.2.06-.41.11-.21.06-.51.09-.9.09-.84,0-1.49-.23-1.97-.7-.48-.47-.72-1.12-.72-1.97v-4.52h-1.66v-1.9h.46c.48,0,.83-.14,1.05-.41.22-.27.33-.6.33-1v-1.35h1.94v2.75Z"/>
        <path class="cls-2" d="m235.2,72.18c.33,0,.65-.06.94-.18.31-.12.58-.3.81-.53.23-.25.42-.55.55-.9.14-.36.2-.77.2-1.24s-.07-.87-.2-1.22c-.14-.36-.32-.65-.55-.88-.23-.25-.5-.42-.81-.53-.29-.12-.61-.18-.94-.18s-.65.06-.96.18c-.3.11-.56.29-.79.53-.22.23-.41.53-.55.88-.13.34-.2.75-.2,1.22s.07.88.2,1.24c.15.36.33.66.55.9.23.23.5.41.79.53.31.12.63.18.96.18Zm0-7.61c.68,0,1.3.12,1.86.37.57.23,1.06.57,1.47,1,.42.42.74.92.98,1.49.23.58.35,1.21.35,1.9s-.12,1.33-.35,1.92c-.23.58-.56,1.08-.98,1.51-.42.42-.91.75-1.47,1-.57.23-1.19.35-1.86.35s-1.28-.12-1.86-.35c-.57-.25-1.06-.58-1.47-1-.41-.43-.73-.93-.96-1.51-.23-.59-.35-1.23-.35-1.92s.12-1.32.35-1.9c.23-.58.55-1.08.96-1.49.42-.43.91-.76,1.47-1,.58-.25,1.2-.37,1.86-.37Z"/>
        <rect class="cls-1" x="246.5" y="60.47" width="2.14" height="13.35"/>
        <path class="cls-2" d="m257.3,68.34c-.01-.26-.07-.5-.17-.74-.09-.25-.22-.46-.41-.65-.18-.18-.41-.33-.68-.44-.27-.11-.59-.17-.96-.17-.33,0-.63.06-.9.18-.26.11-.48.26-.66.46-.18.18-.33.4-.44.65-.11.23-.17.47-.18.7h4.41Zm2.05,2.91c-.12.39-.3.76-.54,1.11-.23.34-.52.65-.87.9-.34.26-.74.46-1.18.61-.44.15-.93.22-1.48.22-.61,0-1.2-.1-1.75-.31-.55-.22-1.04-.53-1.46-.94-.42-.42-.76-.92-1.01-1.51-.25-.6-.37-1.28-.37-2.05,0-.71.12-1.36.35-1.94.25-.58.57-1.07.98-1.48.41-.42.87-.74,1.4-.96.53-.23,1.08-.35,1.64-.35.69,0,1.3.11,1.84.33.55.22,1.01.53,1.38.94.38.41.67.9.87,1.48.2.57.29,1.2.29,1.92,0,.17,0,.33-.02.46-.01.12-.02.2-.04.22h-6.56c.01.34.09.66.22.94.13.28.31.53.53.74.22.21.47.37.76.5.29.11.61.17.94.17.65,0,1.15-.15,1.49-.44.36-.31.61-.68.76-1.12l1.81.57Z"/>
        <path class="cls-2" d="m260.95,71.39c0-.41.07-.76.2-1.07.15-.31.34-.57.57-.79.25-.23.54-.42.87-.55.33-.14.69-.23,1.07-.29l2.3-.35c.26-.04.43-.11.52-.22.1-.12.15-.26.15-.42,0-.38-.13-.7-.41-.96-.27-.27-.7-.41-1.29-.41s-1,.16-1.31.48c-.31.31-.48.69-.53,1.14l-1.95-.44c.04-.38.15-.75.35-1.11.2-.36.46-.67.78-.94.32-.27.7-.49,1.14-.65.46-.16.96-.24,1.51-.24.69,0,1.27.09,1.75.28.49.18.88.43,1.18.74.31.31.53.66.66,1.07.15.41.22.83.22,1.27v4.46c0,.41.01.74.04,1,.04.25.06.39.07.44h-1.99s-.03-.13-.05-.31c-.02-.2-.04-.47-.04-.83-.21.34-.54.67-1,.98-.46.29-1.04.44-1.77.44-.47,0-.89-.07-1.27-.22-.37-.15-.69-.34-.96-.59-.26-.26-.46-.55-.61-.87-.14-.33-.2-.68-.2-1.03Zm3.45,1.03c.29,0,.58-.04.85-.11.27-.09.5-.21.7-.39.21-.18.37-.42.5-.72.12-.29.18-.66.18-1.11v-.41l-2.34.35c-.33.06-.61.19-.85.39-.23.18-.35.46-.35.83,0,.31.11.58.33.81.22.23.55.35.98.35Z"/>
        <path class="cls-2" d="m272.75,69.3c0,.86.21,1.55.65,2.08.44.52,1.03.77,1.77.77.34,0,.66-.07.96-.2.29-.15.55-.34.76-.59.21-.26.37-.56.48-.9.12-.36.18-.75.18-1.18,0-.86-.22-1.54-.66-2.03-.43-.5-1-.76-1.7-.76s-1.28.25-1.75.76c-.45.5-.68,1.19-.68,2.05Zm6.86,2.88c0,.41.01.76.04,1.07.02.31.04.5.06.57h-2.05c-.02-.1-.05-.27-.07-.52-.01-.25-.02-.46-.02-.64-.21.38-.54.71-1,.98s-1,.41-1.64.41-1.24-.12-1.77-.35c-.53-.25-.98-.58-1.36-1-.37-.43-.66-.93-.87-1.51-.21-.58-.31-1.2-.31-1.88,0-.64.1-1.24.31-1.81.21-.58.5-1.08.87-1.51.38-.43.84-.77,1.36-1.01.53-.25,1.11-.37,1.73-.37.39,0,.74.04,1.03.13.29.07.55.18.76.31.22.12.4.26.53.41.13.15.24.29.31.44v-5.42h2.08v11.71Z"/>
      </g>
    </g>
  </g>
</svg>