<?xml version="1.0" encoding="UTF-8"?>
<svg id="Layer_2" data-name="Layer 2" xmlns="http://www.w3.org/2000/svg" viewBox="0 0 290.4 61.02">
  <defs>
    <style>
      .cls-1 {
        fill: #85c441;
      }

      .cls-2 {
        fill: #399fd9;
      }

      .cls-3 {
        fill: #002c3b;
        fill-rule: evenodd;
      }
    </style>
  </defs>
  <g id="Foreground">
    <g>
      <path class="cls-3" d="m152.81,41.67c0-1.55.26-2.92.78-4.1.56-1.22,1.32-2.28,2.26-3.18.94-.89,2.02-1.6,3.25-2.12,1.27-.52,2.64-.89,4.1-1.13l8.54-1.27c.99-.14,1.67-.42,2.05-.85.38-.47.56-1.01.56-1.62,0-1.22-.49-2.28-1.48-3.18-.94-.89-2.4-1.34-4.38-1.34s-3.67.56-4.8,1.7c-1.08,1.13-1.7,2.45-1.84,3.95l-8.33-1.77c.14-1.37.56-2.73,1.27-4.1.71-1.37,1.67-2.59,2.9-3.67,1.22-1.08,2.73-1.95,4.52-2.61,1.79-.71,3.86-1.06,6.21-1.06,2.73,0,5.06.38,6.99,1.13,1.93.71,3.48,1.67,4.66,2.9,1.22,1.18,2.1,2.57,2.61,4.17.56,1.6.85,3.27.85,5.01v17.09c0,.94.05,1.95.14,3.04.09,1.04.19,1.86.28,2.47h-8.62c-.09-.47-.19-1.11-.28-1.91-.05-.85-.07-1.6-.07-2.26-.89,1.37-2.19,2.57-3.88,3.6-1.65,1.03-3.77,1.55-6.36,1.55-1.84,0-3.51-.31-5.01-.92-1.46-.56-2.71-1.32-3.74-2.26-1.04-.99-1.84-2.1-2.4-3.32-.52-1.27-.78-2.59-.78-3.95Zm13.91,3.46c.99,0,1.93-.12,2.83-.35.94-.28,1.76-.73,2.47-1.34.71-.66,1.27-1.48,1.7-2.47.42-1.04.63-2.33.63-3.88v-1.55l-7.84,1.2c-1.22.19-2.26.64-3.11,1.34-.8.66-1.2,1.67-1.2,3.04,0,1.04.38,1.98,1.13,2.83.75.8,1.88,1.2,3.39,1.2Zm21.97,6V0h9.39v51.13h-9.39Zm13-9.46c0-1.55.26-2.92.78-4.1.57-1.22,1.32-2.28,2.26-3.18.94-.89,2.02-1.6,3.25-2.12,1.27-.52,2.64-.89,4.1-1.13l8.55-1.27c.99-.14,1.67-.42,2.05-.85.38-.47.56-1.01.56-1.62,0-1.22-.49-2.28-1.48-3.18-.94-.89-2.4-1.34-4.38-1.34s-3.67.56-4.8,1.7c-1.08,1.13-1.69,2.45-1.84,3.95l-8.33-1.77c.14-1.37.56-2.73,1.27-4.1.71-1.37,1.67-2.59,2.9-3.67,1.22-1.08,2.73-1.95,4.52-2.61,1.79-.71,3.86-1.06,6.21-1.06,2.73,0,5.06.38,6.99,1.13,1.93.71,3.48,1.67,4.66,2.9,1.22,1.18,2.1,2.57,2.61,4.17.56,1.6.85,3.27.85,5.01v17.09c0,.94.05,1.95.14,3.04.09,1.04.19,1.86.28,2.47h-8.62c-.09-.47-.19-1.11-.28-1.91-.05-.85-.07-1.6-.07-2.26-.89,1.37-2.19,2.57-3.88,3.6-1.65,1.03-3.77,1.55-6.36,1.55-1.84,0-3.51-.31-5.01-.92-1.46-.56-2.71-1.32-3.74-2.26-1.04-.99-1.84-2.1-2.4-3.32-.52-1.27-.78-2.59-.78-3.95Zm13.91,3.46c.99,0,1.93-.12,2.83-.35.94-.28,1.76-.73,2.47-1.34.71-.66,1.27-1.48,1.7-2.47.42-1.04.63-2.33.63-3.88v-1.55l-7.84,1.2c-1.22.19-2.26.64-3.11,1.34-.8.66-1.2,1.67-1.2,3.04,0,1.04.38,1.98,1.13,2.83.75.8,1.88,1.2,3.39,1.2Zm51.56-28.74l7.49,22.39,6.43-22.39h9.32l-10.88,34.74h-9.39l-8.12-23.73-7.98,23.73h-9.53l-11.09-34.74h9.89l6.43,22.32,7.56-22.32h9.89Zm-211.55.1c2.05-.71,4.39-1.12,6.87-1.12s4.82.4,6.87,1.12c.68.18,1.31.41,1.9.69,1.6.71,2.92,1.67,3.96,2.9,1.04,1.22,1.79,2.68,2.26,4.38.52,1.69.78,3.48.78,5.37v21.4h-9.39v-19.77c0-1.98-.52-3.63-1.55-4.94-.97-1.3-2.56-1.96-4.76-1.98-2.31.02-3.9.68-4.87,1.98-1.04,1.32-1.55,2.97-1.55,4.94v19.77h-9.39v-21.4c0-1.88.26-3.67.78-5.37.47-1.7,1.22-3.16,2.26-4.38,1.04-1.22,2.35-2.19,3.96-2.9.59-.29,1.22-.52,1.9-.69Zm36.41,34.53c2.05.71,4.39,1.12,6.87,1.12s4.82-.4,6.87-1.12c.68-.18,1.31-.41,1.9-.69,1.6-.71,2.92-1.67,3.95-2.9,1.04-1.22,1.79-2.68,2.26-4.38.52-1.69.78-3.48.78-5.37v-21.23h-9.39v19.61c0,1.98-.52,3.63-1.55,4.94-.97,1.3-2.56,1.96-4.76,1.98-2.31-.02-3.9-.68-4.87-1.98-1.04-1.32-1.55-2.97-1.55-4.94v-19.61h-9.39v21.23c0,1.88.26,3.67.78,5.37.47,1.7,1.22,3.16,2.26,4.38,1.04,1.22,2.35,2.19,3.95,2.9.59.29,1.22.52,1.9.69Zm47.99.11h-9.39l-14.2-34.74h10.31l8.62,23.31,8.26-23.31h9.89l-13.49,34.74Z"/>
      <path class="cls-2" d="m19.75,7.97c5.88,0,11.03,2.04,15.32,5.32.51.39,1.01.8,1.49,1.22.03.02.1.18.1.29l.06,22.76c0,1.97-.52,3.63-1.57,4.97-1.01,1.35-2.66,2.01-4.95,2.03-2.19-.02-3.83-.68-4.85-2.03-1.05-1.34-1.48-3.03-1.5-5.06l-.06-8.58c0-1.8-.45-3.54-.94-5.15-.19-.7-.83-1.84-1.62-3.21-1.18-1.51-2.81-2.65-4.7-3.49-.56-.27-1.17-.49-1.81-.66-1.96-.68-4.2-1.03-6.58-1.03s-4.5.37-6.42,1.01c-.47.16-3.64,1.46,0-2.06,4.78-4.01,11.42-6.34,18.02-6.34Z"/>
      <path class="cls-1" d="m18.67,61.02c-5.88,0-11.03-2.03-15.32-5.32-.51-.39-1.01-.8-1.49-1.22-.03-.02-.1-.18-.1-.29l-.06-22.76c0-1.97.52-3.63,1.57-4.97,1.01-1.35,2.66-2.01,4.95-2.03,2.19.02,3.83.68,4.84,2.03,1.05,1.34,1.48,3.03,1.5,5.06l.06,8.57c0,1.8.45,3.54.94,5.15.19.7.83,1.84,1.61,3.21,1.18,1.51,2.81,2.65,4.7,3.49.56.27,1.17.49,1.81.66,1.96.68,4.2,1.03,6.58,1.03s4.5-.37,6.42-1.01c.47-.16,3.63-1.46,0,2.06-4.79,4.01-11.42,6.34-18.02,6.34Z"/>
    </g>
  </g>
</svg>